<mxfile host="app.diagrams.net" agent="Mozilla/5.0 (Windows NT 10.0; Win64; x64) AppleWebKit/537.36 (KHTML, like Gecko) Chrome/134.0.0.0 Safari/537.36" version="26.1.1">
  <diagram name="第 1 页" id="ZItDNXWBx6X6akeysUPR">
    <mxGraphModel dx="2022" dy="653" grid="1" gridSize="10" guides="1" tooltips="1" connect="1" arrows="1" fold="1" page="1" pageScale="1" pageWidth="827" pageHeight="1169" math="0" shadow="0">
      <root>
        <mxCell id="0" />
        <mxCell id="1" parent="0" />
        <mxCell id="jKJQ2TeYNr5SRhyIFGDt-1" value="Idle" style="rounded=0;whiteSpace=wrap;html=1;fillColor=#dae8fc;strokeColor=#6c8ebf;" vertex="1" parent="1">
          <mxGeometry x="-40" y="280" width="80" height="40" as="geometry" />
        </mxCell>
        <mxCell id="jKJQ2TeYNr5SRhyIFGDt-2" value="Move" style="rounded=0;whiteSpace=wrap;html=1;fillColor=#dae8fc;strokeColor=#6c8ebf;" vertex="1" parent="1">
          <mxGeometry x="160" y="280" width="80" height="40" as="geometry" />
        </mxCell>
        <mxCell id="jKJQ2TeYNr5SRhyIFGDt-3" value="Walk" style="ellipse;whiteSpace=wrap;html=1;fillColor=#cdeb8b;strokeColor=#36393d;" vertex="1" parent="1">
          <mxGeometry x="300" y="280" width="80" height="40" as="geometry" />
        </mxCell>
        <mxCell id="jKJQ2TeYNr5SRhyIFGDt-4" value="Run" style="ellipse;whiteSpace=wrap;html=1;fillColor=#cdeb8b;strokeColor=#36393d;" vertex="1" parent="1">
          <mxGeometry x="450" y="280" width="80" height="40" as="geometry" />
        </mxCell>
        <mxCell id="jKJQ2TeYNr5SRhyIFGDt-6" value="Dush" style="ellipse;whiteSpace=wrap;html=1;fillColor=#e1d5e7;strokeColor=#9673a6;" vertex="1" parent="1">
          <mxGeometry x="370" y="199.31" width="80" height="40" as="geometry" />
        </mxCell>
        <mxCell id="jKJQ2TeYNr5SRhyIFGDt-11" value="移动输入&lt;div&gt;（WSAD）&lt;/div&gt;" style="text;html=1;align=center;verticalAlign=middle;resizable=0;points=[];autosize=1;strokeColor=none;fillColor=none;rotation=0;" vertex="1" parent="1">
          <mxGeometry x="50" y="305" width="80" height="40" as="geometry" />
        </mxCell>
        <mxCell id="jKJQ2TeYNr5SRhyIFGDt-20" value="Jump" style="whiteSpace=wrap;html=1;fillColor=#dae8fc;strokeColor=#6c8ebf;" vertex="1" parent="1">
          <mxGeometry x="160" y="199.31" width="80" height="40" as="geometry" />
        </mxCell>
        <mxCell id="jKJQ2TeYNr5SRhyIFGDt-26" value="状态" style="rounded=0;whiteSpace=wrap;html=1;" vertex="1" parent="1">
          <mxGeometry x="-40" width="80" height="40" as="geometry" />
        </mxCell>
        <mxCell id="jKJQ2TeYNr5SRhyIFGDt-27" value="子状态" style="ellipse;whiteSpace=wrap;html=1;" vertex="1" parent="1">
          <mxGeometry x="80" width="80" height="40" as="geometry" />
        </mxCell>
        <mxCell id="jKJQ2TeYNr5SRhyIFGDt-28" value="RunSide" style="whiteSpace=wrap;html=1;fillColor=#dae8fc;strokeColor=#6c8ebf;" vertex="1" parent="1">
          <mxGeometry x="160" y="119.31" width="80" height="40" as="geometry" />
        </mxCell>
        <mxCell id="jKJQ2TeYNr5SRhyIFGDt-33" value="AirDown" style="whiteSpace=wrap;html=1;fillColor=#dae8fc;strokeColor=#6c8ebf;" vertex="1" parent="1">
          <mxGeometry x="-40" y="199.31" width="80" height="40" as="geometry" />
        </mxCell>
        <mxCell id="jKJQ2TeYNr5SRhyIFGDt-36" value="Any&lt;div&gt;Animation&lt;div&gt;End&lt;/div&gt;&lt;/div&gt;" style="ellipse;shape=cloud;whiteSpace=wrap;html=1;fillColor=#fff2cc;strokeColor=#d6b656;" vertex="1" parent="1">
          <mxGeometry x="-210" y="270" width="80" height="60" as="geometry" />
        </mxCell>
        <mxCell id="jKJQ2TeYNr5SRhyIFGDt-37" value="" style="shape=flexArrow;endArrow=classic;html=1;rounded=0;entryX=0;entryY=0.5;entryDx=0;entryDy=0;" edge="1" parent="1" source="jKJQ2TeYNr5SRhyIFGDt-36" target="jKJQ2TeYNr5SRhyIFGDt-1">
          <mxGeometry width="50" height="50" relative="1" as="geometry">
            <mxPoint x="50" y="300" as="sourcePoint" />
            <mxPoint x="100" y="250" as="targetPoint" />
          </mxGeometry>
        </mxCell>
        <mxCell id="jKJQ2TeYNr5SRhyIFGDt-38" value="动画结束后" style="edgeLabel;html=1;align=center;verticalAlign=middle;resizable=0;points=[];" vertex="1" connectable="0" parent="jKJQ2TeYNr5SRhyIFGDt-37">
          <mxGeometry x="-0.1831" y="1" relative="1" as="geometry">
            <mxPoint x="3" y="-19" as="offset" />
          </mxGeometry>
        </mxCell>
        <mxCell id="jKJQ2TeYNr5SRhyIFGDt-40" value="" style="endArrow=classic;html=1;rounded=0;exitX=1;exitY=0.5;exitDx=0;exitDy=0;entryX=0;entryY=0.5;entryDx=0;entryDy=0;" edge="1" parent="1" source="jKJQ2TeYNr5SRhyIFGDt-2" target="jKJQ2TeYNr5SRhyIFGDt-3">
          <mxGeometry width="50" height="50" relative="1" as="geometry">
            <mxPoint x="280" y="219.31" as="sourcePoint" />
            <mxPoint x="250" y="239.31" as="targetPoint" />
          </mxGeometry>
        </mxCell>
        <mxCell id="jKJQ2TeYNr5SRhyIFGDt-41" value="" style="shape=flexArrow;endArrow=classic;startArrow=classic;html=1;rounded=0;exitX=0;exitY=0.5;exitDx=0;exitDy=0;entryX=1;entryY=0.5;entryDx=0;entryDy=0;" edge="1" parent="1" source="jKJQ2TeYNr5SRhyIFGDt-4" target="jKJQ2TeYNr5SRhyIFGDt-3">
          <mxGeometry width="100" height="100" relative="1" as="geometry">
            <mxPoint x="300" y="269.31" as="sourcePoint" />
            <mxPoint x="370" y="139.31" as="targetPoint" />
          </mxGeometry>
        </mxCell>
        <mxCell id="jKJQ2TeYNr5SRhyIFGDt-43" value="" style="shape=flexArrow;endArrow=classic;html=1;rounded=0;exitX=0.5;exitY=0;exitDx=0;exitDy=0;" edge="1" parent="1" source="jKJQ2TeYNr5SRhyIFGDt-3" target="jKJQ2TeYNr5SRhyIFGDt-6">
          <mxGeometry width="50" height="50" relative="1" as="geometry">
            <mxPoint x="320" y="239.31" as="sourcePoint" />
            <mxPoint x="370" y="189.31" as="targetPoint" />
          </mxGeometry>
        </mxCell>
        <mxCell id="jKJQ2TeYNr5SRhyIFGDt-44" value="" style="shape=flexArrow;endArrow=classic;html=1;rounded=0;exitX=0.5;exitY=0;exitDx=0;exitDy=0;entryX=1;entryY=1;entryDx=0;entryDy=0;" edge="1" parent="1" source="jKJQ2TeYNr5SRhyIFGDt-4" target="jKJQ2TeYNr5SRhyIFGDt-6">
          <mxGeometry width="50" height="50" relative="1" as="geometry">
            <mxPoint x="320" y="239.31" as="sourcePoint" />
            <mxPoint x="370" y="189.31" as="targetPoint" />
          </mxGeometry>
        </mxCell>
        <mxCell id="jKJQ2TeYNr5SRhyIFGDt-45" value="" style="shape=flexArrow;endArrow=classic;html=1;rounded=0;entryX=0;entryY=0.5;entryDx=0;entryDy=0;exitX=1;exitY=0.5;exitDx=0;exitDy=0;" edge="1" parent="1" source="jKJQ2TeYNr5SRhyIFGDt-1" target="jKJQ2TeYNr5SRhyIFGDt-2">
          <mxGeometry width="50" height="50" relative="1" as="geometry">
            <mxPoint x="40" y="300" as="sourcePoint" />
            <mxPoint x="230" y="160" as="targetPoint" />
          </mxGeometry>
        </mxCell>
        <mxCell id="jKJQ2TeYNr5SRhyIFGDt-46" style="edgeStyle=orthogonalEdgeStyle;rounded=0;orthogonalLoop=1;jettySize=auto;html=1;exitX=0.5;exitY=1;exitDx=0;exitDy=0;" edge="1" parent="1" source="jKJQ2TeYNr5SRhyIFGDt-6" target="jKJQ2TeYNr5SRhyIFGDt-6">
          <mxGeometry relative="1" as="geometry" />
        </mxCell>
        <mxCell id="jKJQ2TeYNr5SRhyIFGDt-47" value="Ctrl切换" style="text;html=1;align=center;verticalAlign=middle;resizable=0;points=[];autosize=1;" vertex="1" parent="1">
          <mxGeometry x="380" y="310" width="70" height="30" as="geometry" />
        </mxCell>
        <mxCell id="jKJQ2TeYNr5SRhyIFGDt-49" value="TODO:&amp;nbsp;&lt;div&gt;shift冲刺后进入快速奔跑&lt;/div&gt;&lt;div&gt;&lt;br&gt;&lt;/div&gt;" style="text;html=1;align=center;verticalAlign=middle;resizable=0;points=[];autosize=1;strokeColor=none;fillColor=none;" vertex="1" parent="1">
          <mxGeometry x="440" y="159.31" width="150" height="60" as="geometry" />
        </mxCell>
        <mxCell id="jKJQ2TeYNr5SRhyIFGDt-50" value="RunFaster" style="ellipse;whiteSpace=wrap;html=1;fillColor=#e1d5e7;strokeColor=#9673a6;" vertex="1" parent="1">
          <mxGeometry x="370" y="119.31" width="80" height="40" as="geometry" />
        </mxCell>
        <mxCell id="jKJQ2TeYNr5SRhyIFGDt-51" value="" style="shape=flexArrow;endArrow=classic;html=1;rounded=0;entryX=0.5;entryY=1;entryDx=0;entryDy=0;exitX=0.5;exitY=0;exitDx=0;exitDy=0;" edge="1" parent="1" source="jKJQ2TeYNr5SRhyIFGDt-6" target="jKJQ2TeYNr5SRhyIFGDt-50">
          <mxGeometry width="50" height="50" relative="1" as="geometry">
            <mxPoint x="320" y="319.31" as="sourcePoint" />
            <mxPoint x="370" y="269.31" as="targetPoint" />
          </mxGeometry>
        </mxCell>
        <mxCell id="jKJQ2TeYNr5SRhyIFGDt-52" value="TODO&lt;div&gt;color&lt;/div&gt;" style="ellipse;whiteSpace=wrap;html=1;fillColor=#e1d5e7;strokeColor=#9673a6;" vertex="1" parent="1">
          <mxGeometry x="190" width="80" height="40" as="geometry" />
        </mxCell>
        <mxCell id="jKJQ2TeYNr5SRhyIFGDt-53" value="" style="shape=flexArrow;endArrow=classic;html=1;rounded=0;exitX=1;exitY=0.25;exitDx=0;exitDy=0;entryX=0;entryY=0.75;entryDx=0;entryDy=0;" edge="1" parent="1" source="jKJQ2TeYNr5SRhyIFGDt-1" target="jKJQ2TeYNr5SRhyIFGDt-20">
          <mxGeometry width="50" height="50" relative="1" as="geometry">
            <mxPoint x="140" y="340" as="sourcePoint" />
            <mxPoint x="190" y="290" as="targetPoint" />
          </mxGeometry>
        </mxCell>
        <mxCell id="jKJQ2TeYNr5SRhyIFGDt-66" value="空格" style="text;html=1;align=center;verticalAlign=middle;resizable=0;points=[];autosize=1;strokeColor=none;fillColor=none;" vertex="1" parent="1">
          <mxGeometry x="45" y="239.31" width="50" height="30" as="geometry" />
        </mxCell>
        <mxCell id="jKJQ2TeYNr5SRhyIFGDt-67" value="" style="shape=flexArrow;endArrow=classic;html=1;rounded=0;exitX=0.5;exitY=0;exitDx=0;exitDy=0;entryX=0.5;entryY=1;entryDx=0;entryDy=0;" edge="1" parent="1" source="jKJQ2TeYNr5SRhyIFGDt-2" target="jKJQ2TeYNr5SRhyIFGDt-20">
          <mxGeometry width="50" height="50" relative="1" as="geometry">
            <mxPoint x="140" y="330" as="sourcePoint" />
            <mxPoint x="190" y="280" as="targetPoint" />
          </mxGeometry>
        </mxCell>
        <mxCell id="jKJQ2TeYNr5SRhyIFGDt-68" value="空格" style="text;html=1;align=center;verticalAlign=middle;resizable=0;points=[];autosize=1;strokeColor=none;fillColor=none;" vertex="1" parent="1">
          <mxGeometry x="205" y="239.31" width="50" height="30" as="geometry" />
        </mxCell>
        <mxCell id="jKJQ2TeYNr5SRhyIFGDt-69" value="Any&lt;div&gt;AirState&lt;/div&gt;" style="ellipse;shape=cloud;whiteSpace=wrap;html=1;fillColor=#fff2cc;strokeColor=#d6b656;" vertex="1" parent="1">
          <mxGeometry x="-210" y="189.31" width="80" height="60" as="geometry" />
        </mxCell>
        <mxCell id="jKJQ2TeYNr5SRhyIFGDt-70" value="" style="shape=flexArrow;endArrow=classic;html=1;rounded=0;entryX=0;entryY=0.5;entryDx=0;entryDy=0;" edge="1" parent="1" source="jKJQ2TeYNr5SRhyIFGDt-69" target="jKJQ2TeYNr5SRhyIFGDt-33">
          <mxGeometry width="50" height="50" relative="1" as="geometry">
            <mxPoint x="-120" y="380" as="sourcePoint" />
            <mxPoint x="-90" y="310" as="targetPoint" />
          </mxGeometry>
        </mxCell>
        <mxCell id="jKJQ2TeYNr5SRhyIFGDt-71" value="" style="shape=flexArrow;endArrow=classic;html=1;rounded=0;exitX=0;exitY=0.5;exitDx=0;exitDy=0;entryX=1;entryY=0.5;entryDx=0;entryDy=0;" edge="1" parent="1" source="jKJQ2TeYNr5SRhyIFGDt-20" target="jKJQ2TeYNr5SRhyIFGDt-33">
          <mxGeometry width="50" height="50" relative="1" as="geometry">
            <mxPoint x="170" y="214.99999999999994" as="sourcePoint" />
            <mxPoint x="40" y="225" as="targetPoint" />
          </mxGeometry>
        </mxCell>
        <mxCell id="jKJQ2TeYNr5SRhyIFGDt-72" value="" style="shape=flexArrow;endArrow=classic;html=1;rounded=0;exitX=1;exitY=0.25;exitDx=0;exitDy=0;entryX=0;entryY=0.5;entryDx=0;entryDy=0;" edge="1" parent="1" source="jKJQ2TeYNr5SRhyIFGDt-33" target="jKJQ2TeYNr5SRhyIFGDt-28">
          <mxGeometry width="50" height="50" relative="1" as="geometry">
            <mxPoint x="70" y="340" as="sourcePoint" />
            <mxPoint x="120" y="290" as="targetPoint" />
          </mxGeometry>
        </mxCell>
        <mxCell id="jKJQ2TeYNr5SRhyIFGDt-73" value="“C”滑铲" style="text;html=1;align=center;verticalAlign=middle;resizable=0;points=[];autosize=1;strokeColor=none;fillColor=none;" vertex="1" parent="1">
          <mxGeometry x="40" y="140" width="60" height="30" as="geometry" />
        </mxCell>
        <mxCell id="jKJQ2TeYNr5SRhyIFGDt-74" value="" style="shape=flexArrow;endArrow=classic;html=1;rounded=0;exitX=0;exitY=0.5;exitDx=0;exitDy=0;entryX=1;entryY=0.5;entryDx=0;entryDy=0;" edge="1" parent="1" source="jKJQ2TeYNr5SRhyIFGDt-50" target="jKJQ2TeYNr5SRhyIFGDt-28">
          <mxGeometry width="50" height="50" relative="1" as="geometry">
            <mxPoint x="170" y="350" as="sourcePoint" />
            <mxPoint x="220" y="300" as="targetPoint" />
          </mxGeometry>
        </mxCell>
        <mxCell id="jKJQ2TeYNr5SRhyIFGDt-75" value="“C”滑铲" style="text;html=1;align=center;verticalAlign=middle;resizable=0;points=[];autosize=1;strokeColor=none;fillColor=none;" vertex="1" parent="1">
          <mxGeometry x="280" y="110" width="60" height="30" as="geometry" />
        </mxCell>
        <mxCell id="jKJQ2TeYNr5SRhyIFGDt-81" value="" style="shape=flexArrow;endArrow=classic;html=1;rounded=0;exitX=0.5;exitY=1;exitDx=0;exitDy=0;entryX=0.5;entryY=0;entryDx=0;entryDy=0;" edge="1" parent="1" source="jKJQ2TeYNr5SRhyIFGDt-28" target="jKJQ2TeYNr5SRhyIFGDt-20">
          <mxGeometry width="50" height="50" relative="1" as="geometry">
            <mxPoint x="280" y="209.31" as="sourcePoint" />
            <mxPoint x="330" y="159.31" as="targetPoint" />
          </mxGeometry>
        </mxCell>
        <mxCell id="jKJQ2TeYNr5SRhyIFGDt-83" value="空格" style="text;html=1;align=center;verticalAlign=middle;resizable=0;points=[];autosize=1;strokeColor=none;fillColor=none;" vertex="1" parent="1">
          <mxGeometry x="205" y="159.31" width="50" height="30" as="geometry" />
        </mxCell>
        <mxCell id="jKJQ2TeYNr5SRhyIFGDt-84" value="StandAttack" style="rounded=0;whiteSpace=wrap;html=1;fillColor=#dae8fc;strokeColor=#6c8ebf;" vertex="1" parent="1">
          <mxGeometry x="-40" y="360" width="80" height="40" as="geometry" />
        </mxCell>
        <mxCell id="jKJQ2TeYNr5SRhyIFGDt-85" value="Skill" style="rounded=0;whiteSpace=wrap;html=1;fillColor=#dae8fc;strokeColor=#6c8ebf;" vertex="1" parent="1">
          <mxGeometry x="-40" y="500" width="80" height="40" as="geometry" />
        </mxCell>
        <mxCell id="jKJQ2TeYNr5SRhyIFGDt-86" value="Defence" style="rounded=0;whiteSpace=wrap;html=1;fillColor=#dae8fc;strokeColor=#6c8ebf;" vertex="1" parent="1">
          <mxGeometry x="-40" y="580" width="80" height="40" as="geometry" />
        </mxCell>
        <mxCell id="jKJQ2TeYNr5SRhyIFGDt-87" value="Runside" style="rounded=0;whiteSpace=wrap;html=1;fillColor=#e1d5e7;strokeColor=#9673a6;" vertex="1" parent="1">
          <mxGeometry x="-40" y="640" width="80" height="40" as="geometry" />
        </mxCell>
        <mxCell id="jKJQ2TeYNr5SRhyIFGDt-88" value="CounterAttack" style="rounded=0;whiteSpace=wrap;html=1;fillColor=#dae8fc;strokeColor=#6c8ebf;" vertex="1" parent="1">
          <mxGeometry x="120" y="580" width="80" height="40" as="geometry" />
        </mxCell>
        <mxCell id="jKJQ2TeYNr5SRhyIFGDt-89" value="Hurt" style="rounded=0;whiteSpace=wrap;html=1;fillColor=#dae8fc;strokeColor=#6c8ebf;" vertex="1" parent="1">
          <mxGeometry x="-40" y="720" width="80" height="40" as="geometry" />
        </mxCell>
        <mxCell id="jKJQ2TeYNr5SRhyIFGDt-90" value="onHitAction" style="ellipse;shape=cloud;whiteSpace=wrap;html=1;fillColor=#fff2cc;strokeColor=#d6b656;" vertex="1" parent="1">
          <mxGeometry x="-210" y="710" width="80" height="60" as="geometry" />
        </mxCell>
        <mxCell id="jKJQ2TeYNr5SRhyIFGDt-91" value="Idle,&lt;div&gt;Attack,&lt;/div&gt;&lt;div&gt;Skill,&lt;/div&gt;&lt;div&gt;Move&lt;/div&gt;" style="ellipse;shape=cloud;whiteSpace=wrap;html=1;fillColor=#ffe6cc;strokeColor=#d79b00;" vertex="1" parent="1">
          <mxGeometry x="-230" y="480" width="120" height="80" as="geometry" />
        </mxCell>
        <mxCell id="jKJQ2TeYNr5SRhyIFGDt-92" value="" style="shape=flexArrow;endArrow=classic;html=1;rounded=0;entryX=0;entryY=0.5;entryDx=0;entryDy=0;exitX=0.88;exitY=0.25;exitDx=0;exitDy=0;exitPerimeter=0;" edge="1" parent="1" source="jKJQ2TeYNr5SRhyIFGDt-91" target="jKJQ2TeYNr5SRhyIFGDt-84">
          <mxGeometry width="50" height="50" relative="1" as="geometry">
            <mxPoint x="-140" y="430" as="sourcePoint" />
            <mxPoint x="-90" y="380" as="targetPoint" />
          </mxGeometry>
        </mxCell>
        <mxCell id="jKJQ2TeYNr5SRhyIFGDt-93" value="" style="shape=flexArrow;endArrow=classic;html=1;rounded=0;entryX=0;entryY=0.5;entryDx=0;entryDy=0;" edge="1" parent="1" source="jKJQ2TeYNr5SRhyIFGDt-91" target="jKJQ2TeYNr5SRhyIFGDt-85">
          <mxGeometry width="50" height="50" relative="1" as="geometry">
            <mxPoint x="-110" y="440" as="sourcePoint" />
            <mxPoint x="-70" y="380" as="targetPoint" />
          </mxGeometry>
        </mxCell>
        <mxCell id="jKJQ2TeYNr5SRhyIFGDt-94" value="" style="shape=flexArrow;endArrow=classic;html=1;rounded=0;entryX=0;entryY=0.5;entryDx=0;entryDy=0;exitX=0.928;exitY=0.775;exitDx=0;exitDy=0;exitPerimeter=0;" edge="1" parent="1" source="jKJQ2TeYNr5SRhyIFGDt-91" target="jKJQ2TeYNr5SRhyIFGDt-86">
          <mxGeometry width="50" height="50" relative="1" as="geometry">
            <mxPoint x="-60" y="450" as="sourcePoint" />
            <mxPoint x="-10" y="400" as="targetPoint" />
          </mxGeometry>
        </mxCell>
        <mxCell id="jKJQ2TeYNr5SRhyIFGDt-95" value="" style="shape=flexArrow;endArrow=classic;html=1;rounded=0;entryX=0;entryY=0.5;entryDx=0;entryDy=0;exitX=0.775;exitY=0.91;exitDx=0;exitDy=0;exitPerimeter=0;" edge="1" parent="1" source="jKJQ2TeYNr5SRhyIFGDt-91" target="jKJQ2TeYNr5SRhyIFGDt-87">
          <mxGeometry width="50" height="50" relative="1" as="geometry">
            <mxPoint x="-60" y="450" as="sourcePoint" />
            <mxPoint x="-10" y="400" as="targetPoint" />
          </mxGeometry>
        </mxCell>
        <mxCell id="jKJQ2TeYNr5SRhyIFGDt-96" value="" style="shape=flexArrow;endArrow=classic;html=1;rounded=0;exitX=1;exitY=0.5;exitDx=0;exitDy=0;entryX=0;entryY=0.5;entryDx=0;entryDy=0;" edge="1" parent="1" source="jKJQ2TeYNr5SRhyIFGDt-86" target="jKJQ2TeYNr5SRhyIFGDt-88">
          <mxGeometry width="50" height="50" relative="1" as="geometry">
            <mxPoint x="-60" y="450" as="sourcePoint" />
            <mxPoint x="120" y="660" as="targetPoint" />
          </mxGeometry>
        </mxCell>
        <mxCell id="jKJQ2TeYNr5SRhyIFGDt-97" value="" style="shape=flexArrow;endArrow=classic;html=1;rounded=0;entryX=0;entryY=0.5;entryDx=0;entryDy=0;exitX=0.875;exitY=0.5;exitDx=0;exitDy=0;exitPerimeter=0;" edge="1" parent="1" source="jKJQ2TeYNr5SRhyIFGDt-90" target="jKJQ2TeYNr5SRhyIFGDt-89">
          <mxGeometry width="50" height="50" relative="1" as="geometry">
            <mxPoint x="-130" y="720" as="sourcePoint" />
            <mxPoint x="70" y="470" as="targetPoint" />
          </mxGeometry>
        </mxCell>
        <mxCell id="jKJQ2TeYNr5SRhyIFGDt-98" value="StandAttack2" style="ellipse;whiteSpace=wrap;html=1;fillColor=#cdeb8b;strokeColor=#36393d;" vertex="1" parent="1">
          <mxGeometry x="120" y="440" width="80" height="40" as="geometry" />
        </mxCell>
        <mxCell id="jKJQ2TeYNr5SRhyIFGDt-99" value="StandAttack3" style="ellipse;whiteSpace=wrap;html=1;fillColor=#cdeb8b;strokeColor=#36393d;" vertex="1" parent="1">
          <mxGeometry x="280" y="440" width="80" height="40" as="geometry" />
        </mxCell>
        <mxCell id="jKJQ2TeYNr5SRhyIFGDt-100" value="StandAttack4" style="ellipse;whiteSpace=wrap;html=1;fillColor=#cdeb8b;strokeColor=#36393d;" vertex="1" parent="1">
          <mxGeometry x="280" y="360" width="80" height="40" as="geometry" />
        </mxCell>
        <mxCell id="jKJQ2TeYNr5SRhyIFGDt-101" value="StandAttack1" style="ellipse;whiteSpace=wrap;html=1;fillColor=#cdeb8b;strokeColor=#36393d;" vertex="1" parent="1">
          <mxGeometry x="120" y="360" width="80" height="40" as="geometry" />
        </mxCell>
        <mxCell id="jKJQ2TeYNr5SRhyIFGDt-103" value="" style="endArrow=classic;html=1;rounded=0;entryX=0;entryY=0.5;entryDx=0;entryDy=0;exitX=1;exitY=0.5;exitDx=0;exitDy=0;" edge="1" parent="1" source="jKJQ2TeYNr5SRhyIFGDt-84" target="jKJQ2TeYNr5SRhyIFGDt-101">
          <mxGeometry width="50" height="50" relative="1" as="geometry">
            <mxPoint x="-20" y="440" as="sourcePoint" />
            <mxPoint x="30" y="390" as="targetPoint" />
          </mxGeometry>
        </mxCell>
        <mxCell id="jKJQ2TeYNr5SRhyIFGDt-104" value="" style="shape=flexArrow;endArrow=classic;html=1;rounded=0;exitX=1;exitY=0.5;exitDx=0;exitDy=0;" edge="1" parent="1" source="jKJQ2TeYNr5SRhyIFGDt-98" target="jKJQ2TeYNr5SRhyIFGDt-99">
          <mxGeometry width="50" height="50" relative="1" as="geometry">
            <mxPoint x="30" y="440" as="sourcePoint" />
            <mxPoint x="80" y="390" as="targetPoint" />
          </mxGeometry>
        </mxCell>
        <mxCell id="jKJQ2TeYNr5SRhyIFGDt-105" value="" style="shape=flexArrow;endArrow=classic;html=1;rounded=0;entryX=0.5;entryY=1;entryDx=0;entryDy=0;exitX=0.5;exitY=0;exitDx=0;exitDy=0;" edge="1" parent="1" source="jKJQ2TeYNr5SRhyIFGDt-99" target="jKJQ2TeYNr5SRhyIFGDt-100">
          <mxGeometry width="50" height="50" relative="1" as="geometry">
            <mxPoint x="30" y="440" as="sourcePoint" />
            <mxPoint x="80" y="390" as="targetPoint" />
          </mxGeometry>
        </mxCell>
        <mxCell id="jKJQ2TeYNr5SRhyIFGDt-106" value="" style="shape=flexArrow;endArrow=classic;html=1;rounded=0;entryX=1;entryY=0.5;entryDx=0;entryDy=0;exitX=0;exitY=0.5;exitDx=0;exitDy=0;" edge="1" parent="1" source="jKJQ2TeYNr5SRhyIFGDt-100" target="jKJQ2TeYNr5SRhyIFGDt-101">
          <mxGeometry width="50" height="50" relative="1" as="geometry">
            <mxPoint x="30" y="440" as="sourcePoint" />
            <mxPoint x="80" y="390" as="targetPoint" />
          </mxGeometry>
        </mxCell>
        <mxCell id="jKJQ2TeYNr5SRhyIFGDt-107" value="" style="shape=flexArrow;endArrow=classic;html=1;rounded=0;entryX=0.5;entryY=0;entryDx=0;entryDy=0;exitX=0.5;exitY=1;exitDx=0;exitDy=0;" edge="1" parent="1" source="jKJQ2TeYNr5SRhyIFGDt-101" target="jKJQ2TeYNr5SRhyIFGDt-98">
          <mxGeometry width="50" height="50" relative="1" as="geometry">
            <mxPoint x="30" y="440" as="sourcePoint" />
            <mxPoint x="80" y="390" as="targetPoint" />
          </mxGeometry>
        </mxCell>
        <mxCell id="jKJQ2TeYNr5SRhyIFGDt-108" value="SkillE" style="ellipse;whiteSpace=wrap;html=1;fillColor=#cdeb8b;strokeColor=#36393d;" vertex="1" parent="1">
          <mxGeometry x="120" y="480" width="80" height="40" as="geometry" />
        </mxCell>
        <mxCell id="jKJQ2TeYNr5SRhyIFGDt-109" value="SkillQ" style="ellipse;whiteSpace=wrap;html=1;fillColor=#e1d5e7;strokeColor=#9673a6;" vertex="1" parent="1">
          <mxGeometry x="120" y="520" width="80" height="40" as="geometry" />
        </mxCell>
        <mxCell id="jKJQ2TeYNr5SRhyIFGDt-110" value="" style="endArrow=classic;html=1;rounded=0;exitX=1;exitY=0.5;exitDx=0;exitDy=0;" edge="1" parent="1" source="jKJQ2TeYNr5SRhyIFGDt-85" target="jKJQ2TeYNr5SRhyIFGDt-108">
          <mxGeometry width="50" height="50" relative="1" as="geometry">
            <mxPoint x="-80" y="520" as="sourcePoint" />
            <mxPoint x="-30" y="470" as="targetPoint" />
          </mxGeometry>
        </mxCell>
        <mxCell id="jKJQ2TeYNr5SRhyIFGDt-111" value="" style="endArrow=classic;html=1;rounded=0;entryX=0;entryY=0.5;entryDx=0;entryDy=0;" edge="1" parent="1" target="jKJQ2TeYNr5SRhyIFGDt-109">
          <mxGeometry width="50" height="50" relative="1" as="geometry">
            <mxPoint x="40" y="520" as="sourcePoint" />
            <mxPoint x="-30" y="470" as="targetPoint" />
          </mxGeometry>
        </mxCell>
        <mxCell id="jKJQ2TeYNr5SRhyIFGDt-112" value="左键" style="text;html=1;align=center;verticalAlign=middle;resizable=0;points=[];autosize=1;strokeColor=none;fillColor=none;" vertex="1" parent="1">
          <mxGeometry x="-135" y="408" width="50" height="30" as="geometry" />
        </mxCell>
        <mxCell id="jKJQ2TeYNr5SRhyIFGDt-113" value="右键长按" style="text;html=1;align=center;verticalAlign=middle;resizable=0;points=[];autosize=1;strokeColor=none;fillColor=none;" vertex="1" parent="1">
          <mxGeometry x="-90" y="540" width="70" height="30" as="geometry" />
        </mxCell>
        <mxCell id="jKJQ2TeYNr5SRhyIFGDt-114" value="精准格挡后&lt;div&gt;左键&lt;/div&gt;" style="text;html=1;align=center;verticalAlign=middle;resizable=0;points=[];autosize=1;strokeColor=none;fillColor=none;" vertex="1" parent="1">
          <mxGeometry x="40" y="558" width="80" height="40" as="geometry" />
        </mxCell>
        <mxCell id="jKJQ2TeYNr5SRhyIFGDt-117" value="Shift" style="text;html=1;align=center;verticalAlign=middle;resizable=0;points=[];autosize=1;strokeColor=none;fillColor=none;" vertex="1" parent="1">
          <mxGeometry x="-155" y="588" width="50" height="30" as="geometry" />
        </mxCell>
        <mxCell id="jKJQ2TeYNr5SRhyIFGDt-118" value="" style="shape=flexArrow;endArrow=classic;html=1;rounded=0;entryX=0.5;entryY=1;entryDx=0;entryDy=0;exitX=0.5;exitY=0;exitDx=0;exitDy=0;" edge="1" parent="1" source="jKJQ2TeYNr5SRhyIFGDt-89" target="jKJQ2TeYNr5SRhyIFGDt-87">
          <mxGeometry width="50" height="50" relative="1" as="geometry">
            <mxPoint x="-80" y="550" as="sourcePoint" />
            <mxPoint x="-30" y="500" as="targetPoint" />
          </mxGeometry>
        </mxCell>
        <mxCell id="jKJQ2TeYNr5SRhyIFGDt-119" value="快速起身&lt;div&gt;shift&lt;/div&gt;" style="text;html=1;align=center;verticalAlign=middle;resizable=0;points=[];autosize=1;strokeColor=none;fillColor=none;" vertex="1" parent="1">
          <mxGeometry x="20" y="680" width="70" height="40" as="geometry" />
        </mxCell>
      </root>
    </mxGraphModel>
  </diagram>
</mxfile>
